<?xml version="1.0" standalone="no"?>
<!DOCTYPE svg PUBLIC "-//W3C//DTD SVG 20010904//EN"
 "http://www.w3.org/TR/2001/REC-SVG-20010904/DTD/svg10.dtd">
<svg version="1.0" xmlns="http://www.w3.org/2000/svg"
 width="142.000000pt" height="142.000000pt" viewBox="0 0 142.000000 142.000000"
 preserveAspectRatio="xMidYMid meet">
<metadata>
Created by potrace 1.14, written by Peter Selinger 2001-2017
</metadata>
<g transform="translate(0.000000,142.000000) scale(0.100000,-0.100000)"
fill="#000000" stroke="none">
<path d="M609 1366 c-3 -3 -19 -8 -37 -11 -207 -36 -413 -207 -490 -407 -42
-110 -48 -142 -46 -254 1 -60 4 -116 6 -124 39 -155 124 -290 242 -384 124
-99 269 -149 426 -149 135 0 183 8 284 50 253 105 416 343 415 608 0 101 -2
117 -23 190 -46 156 -179 323 -316 395 -120 64 -191 83 -331 87 -69 1 -128 1
-130 -1z m93 -121 c9 -11 17 -15 18 -9 0 5 -5 15 -12 22 -9 9 -9 12 0 12 7 0
12 -4 12 -10 0 -5 9 -19 20 -30 11 -11 16 -20 12 -20 -4 0 -13 5 -20 12 -17
17 -14 -3 3 -26 17 -23 19 -36 5 -36 -6 0 -9 3 -9 8 3 20 -4 33 -39 70 -21 23
-45 49 -53 59 -16 21 37 -23 63 -52z m3 37 c-6 -7 -34 11 -29 19 3 5 11 3 19
-4 7 -6 12 -13 10 -15z m75 16 c0 -4 -7 -8 -15 -8 -8 0 -15 4 -15 8 0 5 7 9
15 9 8 0 15 -4 15 -9z m-175 -17 c-8 -14 -25 -14 -25 0 0 5 5 7 10 4 6 -3 10
-1 10 6 0 7 3 10 6 6 3 -3 3 -10 -1 -16z m242 13 c-3 -3 -12 -4 -19 -1 -8 3
-5 6 6 6 11 1 17 -2 13 -5z m-308 -21 c-12 -15 -12 -16 4 -10 19 7 67 -18 67
-35 0 -5 -10 0 -22 12 -25 23 -46 27 -28 5 7 -9 10 -18 6 -22 -3 -3 -6 -2 -6
4 0 6 -15 21 -32 33 -18 12 -25 19 -16 16 10 -3 20 -1 23 4 4 6 9 10 12 10 3
0 -1 -8 -8 -17z m93 -1 c-7 -2 -12 -8 -12 -14 0 -6 7 -8 15 -4 9 3 28 -9 50
-32 36 -38 43 -52 24 -52 -5 0 -7 5 -4 10 11 18 -5 10 -33 -15 -15 -14 -31
-25 -36 -25 -5 0 6 13 25 29 18 17 30 33 26 37 -4 4 -18 -5 -31 -19 -21 -23
-25 -24 -23 -8 1 11 4 18 8 15 4 -2 12 3 19 11 15 18 -3 47 -25 39 -7 -3 -16
-1 -19 4 -9 15 5 43 17 35 8 -5 7 -8 -1 -11z m108 8 c0 -5 -2 -10 -4 -10 -3 0
-8 5 -11 10 -3 6 -1 10 4 10 6 0 11 -4 11 -10z m150 -5 c7 -8 9 -15 5 -15 -5
0 2 -9 15 -20 13 -11 19 -20 15 -20 -5 0 -17 7 -27 17 -23 21 -24 0 0 -23 16
-17 16 -18 -1 -11 -13 5 -17 3 -14 -5 2 -7 13 -12 23 -10 17 2 17 1 -2 -10
-13 -8 -20 -21 -18 -33 2 -11 -4 -26 -13 -32 -9 -7 -13 -13 -9 -13 4 0 -6 -12
-23 -26 -30 -25 -57 -25 -47 1 6 16 -21 41 -32 30 -4 -4 -1 -10 6 -12 6 -3 12
-9 12 -14 0 -6 -4 -8 -9 -4 -5 3 -11 -3 -13 -12 -3 -10 -5 7 -5 37 0 37 2 48
8 35 4 -11 8 -16 8 -10 1 5 8 -1 17 -13 14 -20 41 -33 31 -14 -2 4 4 15 15 25
27 26 22 4 -8 -28 -38 -41 -21 -42 20 -1 35 34 47 54 26 41 -5 -3 -10 -1 -10
4 0 6 4 11 8 11 4 0 8 9 9 20 2 17 -4 15 -32 -15 -35 -35 -55 -44 -55 -24 0 5
4 8 9 4 5 -3 17 5 25 17 9 12 16 18 16 13 0 -6 10 4 21 22 17 26 18 36 9 53
-6 12 -9 24 -6 28 3 3 6 0 6 -7 0 -7 5 -9 12 -5 7 5 5 11 -7 21 -11 7 -14 13
-8 13 6 0 16 -7 23 -15z m-134 -10 c-3 -8 3 -20 14 -28 11 -8 17 -17 13 -20
-3 -4 1 -7 10 -7 22 0 22 15 0 32 -20 15 -28 38 -13 38 6 0 10 -7 10 -15 0 -8
9 -20 20 -27 26 -16 25 -25 -1 -33 -16 -5 -27 0 -45 20 -19 23 -24 55 -7 55 3
0 3 -7 -1 -15z m70 7 c-3 -5 4 -16 15 -25 25 -22 24 -28 -11 -66 -29 -30 -48
-41 -35 -21 3 6 1 10 -4 10 -6 0 -11 5 -11 12 0 9 3 9 11 1 9 -9 18 -5 38 13
l26 25 -22 19 c-24 19 -30 40 -12 40 5 0 8 -4 5 -8z m111 -5 c-2 -6 2 -18 9
-25 8 -7 14 -10 14 -6 0 3 7 1 15 -6 18 -15 20 0 3 20 -11 12 -10 12 3 2 9 -6
19 -9 23 -5 4 4 4 -1 0 -11 -6 -15 -4 -17 6 -11 8 5 11 4 6 -3 -3 -5 -2 -12 4
-14 6 -2 12 -13 15 -26 6 -32 13 -40 33 -37 9 1 11 0 4 -2 -7 -3 -10 -9 -7
-14 4 -5 2 -9 -2 -9 -11 0 -44 55 -37 62 2 3 -3 11 -13 19 -15 13 -16 12 -10
-6 5 -14 0 -10 -17 10 -14 17 -25 24 -26 17 0 -7 10 -23 23 -36 13 -13 34 -36
46 -52 12 -16 30 -29 38 -29 9 0 17 -6 19 -13 1 -7 0 -8 -3 -2 -2 5 -9 10 -14
10 -6 0 -7 -4 -4 -10 3 -5 2 -10 -3 -10 -6 0 -13 8 -16 17 -6 15 -10 14 -30
-8 -13 -13 -22 -27 -20 -30 2 -3 -3 -6 -11 -6 -21 0 -19 3 18 37 l32 29 -36
35 c-20 19 -40 32 -44 28 -5 -4 -5 1 -2 10 3 9 -2 27 -12 40 -16 20 -18 48 -4
48 3 0 3 -6 0 -13z m-382 -54 c28 -26 43 -44 33 -41 -11 5 -23 -3 -40 -28 -12
-19 -31 -37 -40 -40 -16 -5 -15 -8 7 -30 14 -14 25 -29 25 -33 0 -5 -15 6 -34
25 -23 23 -40 32 -53 28 -17 -5 -17 -5 0 6 9 6 22 8 28 5 5 -4 28 12 50 35
l40 42 -40 39 c-56 55 -35 49 24 -8z m-32 -7 c9 -10 17 -22 17 -26 0 -16 -49
-62 -61 -57 -9 4 -7 6 5 6 11 1 17 4 13 7 -3 4 4 15 16 24 12 10 19 22 15 26
-4 4 -19 -5 -33 -20 -14 -15 -25 -24 -25 -20 0 4 10 18 22 31 l22 23 -21 21
-20 21 -35 -31 c-38 -33 -48 -37 -48 -20 0 5 5 7 12 3 8 -5 9 -2 5 9 -3 9 -1
19 5 23 7 5 8 2 3 -6 -5 -8 -3 -11 6 -8 8 3 13 11 11 17 -1 7 1 10 6 7 4 -2
14 -1 22 4 15 9 31 1 63 -34z m82 -6 c5 1 11 -4 13 -12 3 -11 2 -11 -6 0 -5 8
-13 13 -18 12 -5 0 -10 7 -11 17 -3 17 -2 17 5 0 4 -10 12 -18 17 -17z m45 18
c0 -4 -7 -8 -15 -8 -8 0 -15 4 -15 8 0 5 7 9 15 9 8 0 15 -4 15 -9z m-267 -13
c-3 -9 -8 -14 -10 -11 -3 3 -2 9 2 15 9 16 15 13 8 -4z m86 -29 c-14 -12 -29
-29 -32 -37 -4 -11 -6 -10 -6 2 -1 9 10 24 24 33 14 9 25 21 25 27 0 5 -15 -1
-32 -14 -18 -14 -43 -30 -55 -36 -19 -10 -22 -9 -17 3 3 9 9 15 12 14 17 -2
29 4 56 27 21 18 33 22 40 15 8 -8 4 -18 -15 -34z m471 24 c0 -5 -2 -10 -4
-10 -3 0 -8 5 -11 10 -3 6 -1 10 4 10 6 0 11 -4 11 -10z m143 -9 c8 -1 10 -8
5 -19 -2 -4 -14 4 -28 17 -19 18 -20 21 -5 13 11 -5 23 -10 28 -11z m-313 -1
c0 -5 -2 -10 -4 -10 -3 0 -8 5 -11 10 -3 6 -1 10 4 10 6 0 11 -4 11 -10z
m-433 -22 c-3 -8 -6 -5 -6 6 -1 11 2 17 5 13 3 -3 4 -12 1 -19z m33 1 c0 -5
-4 -9 -8 -9 -5 0 -9 7 -9 15 0 8 4 12 9 9 4 -3 8 -9 8 -15z m575 1 c3 -5 1
-10 -4 -10 -6 0 -11 5 -11 10 0 6 2 10 4 10 3 0 8 -4 11 -10z m120 0 c3 -5 1
-10 -4 -10 -6 0 -11 5 -11 10 0 6 2 10 4 10 3 0 8 -4 11 -10z m-445 -10 c0 -5
-5 -10 -11 -10 -5 0 -7 5 -4 10 3 6 8 10 11 10 2 0 4 -4 4 -10z m158 -15 c-3
-3 -9 2 -12 12 -6 14 -5 15 5 6 7 -7 10 -15 7 -18z m135 10 c-3 -9 -8 -14 -10
-11 -3 3 -2 9 2 15 9 16 15 13 8 -4z m211 3 c-3 -4 -9 -8 -15 -8 -5 0 -9 4 -9
8 0 5 7 9 15 9 8 0 12 -4 9 -9z m-780 -14 c6 2 8 1 3 -1 -4 -3 -5 -9 -1 -14 3
-5 1 -9 -3 -9 -5 0 -14 10 -22 23 -9 15 -9 18 -1 10 7 -6 18 -10 24 -9z m241
7 c-3 -5 3 -12 12 -15 13 -3 11 -4 -4 -3 -12 1 -29 -7 -38 -18 -13 -15 -12
-13 1 13 10 17 22 32 27 32 4 0 6 -4 2 -9z m125 5 c0 -3 -4 -8 -10 -11 -5 -3
-10 -1 -10 4 0 6 5 11 10 11 6 0 10 -2 10 -4z m280 -13 c0 -7 -33 -32 -42 -33
-5 0 -8 5 -8 10 0 6 5 9 11 8 6 -2 14 3 16 10 3 8 -2 10 -14 6 -14 -5 -15 -4
-4 4 13 10 41 6 41 -5z m-670 -22 c7 -14 4 -24 -11 -40 -12 -12 -18 -25 -15
-29 4 -3 18 6 31 20 13 14 21 29 18 32 -4 3 -1 6 5 6 20 0 13 -15 -23 -50 -19
-18 -31 -38 -28 -43 3 -6 1 -7 -5 -3 -6 4 -20 1 -31 -6 -24 -15 -41 -3 -21 15
10 9 11 9 6 0 -4 -7 -3 -13 2 -13 17 0 22 13 11 27 -9 10 -15 11 -26 2 -11 -9
-17 -9 -26 0 -7 7 -7 12 -2 11 23 -5 36 1 29 13 -9 13 26 -12 38 -28 4 -5 10
-6 14 -2 5 4 -4 19 -19 33 -15 14 -27 28 -27 31 0 3 9 -2 20 -12 19 -17 21
-17 40 0 19 17 19 20 4 43 -9 13 -11 21 -5 18 6 -4 15 -15 21 -25z m100 19 c0
-5 -8 -10 -17 -10 -15 0 -16 2 -3 10 19 12 20 12 20 0z m32 -22 c-8 -8 -9 -4
-5 13 4 13 8 18 11 10 2 -7 -1 -18 -6 -23z m213 2 c-19 -21 -18 -22 23 -62
l42 -41 -30 -22 c-16 -12 -28 -24 -25 -26 2 -3 -4 -5 -15 -5 -10 0 -16 4 -14
8 3 4 0 8 -5 8 -6 0 -11 5 -11 11 0 5 4 8 8 5 5 -3 15 4 22 15 8 10 19 19 24
19 5 0 -1 -11 -14 -25 -28 -30 -13 -33 20 -5 22 19 23 22 7 37 -15 16 -18 15
-42 -7 -14 -13 -25 -20 -25 -15 0 4 10 16 22 26 11 11 18 22 14 26 -4 4 -21
-7 -39 -25 -17 -18 -26 -32 -19 -32 6 0 12 -5 12 -11 0 -5 -4 -8 -9 -5 -5 4
-11 0 -14 -6 -3 -7 -4 -2 -4 12 1 14 14 37 31 52 17 15 28 30 24 34 -4 3 -24
-10 -45 -30 -39 -37 -53 -44 -53 -25 0 5 3 8 8 6 4 -3 32 21 62 52 30 32 57
56 59 54 2 -1 -4 -12 -14 -23z m68 23 c-7 -2 -13 -9 -13 -14 0 -6 5 -7 10 -4
6 3 10 2 10 -4 0 -5 -6 -12 -12 -15 -10 -5 -10 -7 0 -12 6 -3 12 -10 12 -16 0
-7 -5 -6 -14 1 -8 7 -13 24 -11 39 4 34 3 32 18 31 10 0 10 -2 0 -6z m194 -13
c-8 -32 28 -46 55 -20 12 11 24 18 26 15 6 -5 -37 -45 -48 -45 -3 0 -15 7 -26
15 -36 27 -39 14 -4 -17 19 -17 30 -28 23 -24 -6 3 -14 0 -16 -6 -4 -8 -6 -7
-6 4 -1 9 -10 23 -21 31 -20 14 -19 54 1 41 5 -3 9 2 9 10 0 9 3 16 6 16 4 0
4 -9 1 -20z m213 10 c0 -5 -5 -10 -11 -10 -5 0 -7 5 -4 10 3 6 8 10 11 10 2 0
4 -4 4 -10z m-36 -15 c-4 -8 -11 -12 -16 -9 -6 4 -5 10 3 15 19 12 19 11 13
-6z m-811 -10 c8 -19 -12 -30 -26 -16 -9 9 -7 10 8 5 18 -7 18 -6 6 9 -7 9 -9
17 -3 17 5 0 12 -7 15 -15z m87 5 c0 -5 -2 -10 -4 -10 -3 0 -8 5 -11 10 -3 6
-1 10 4 10 6 0 11 -4 11 -10z m260 6 c0 -3 -4 -8 -10 -11 -5 -3 -10 -1 -10 4
0 6 5 11 10 11 6 0 10 -2 10 -4z m55 -15 c-4 -13 6 -28 34 -53 l39 -36 -24
-27 c-13 -16 -27 -25 -30 -22 -4 4 4 15 17 26 l24 19 -43 41 c-36 34 -41 43
-30 56 17 19 20 19 13 -4z m484 0 c18 -18 18 -18 -5 -18 -27 0 -39 11 -29 27
8 14 12 13 34 -9z m-769 -23 c0 -19 -16 -5 -17 14 -2 18 0 20 7 8 5 -8 10 -18
10 -22z m20 22 c0 -5 -2 -10 -4 -10 -3 0 -8 5 -11 10 -3 6 -1 10 4 10 6 0 11
-4 11 -10z m150 -5 c-8 -10 -9 -15 -2 -15 6 0 16 8 21 18 8 13 10 14 10 2 0
-8 -12 -25 -27 -36 l-27 -21 -18 23 c-14 19 -15 23 -2 18 8 -3 15 -10 15 -15
0 -5 5 -9 10 -9 6 0 10 6 9 13 -3 24 1 37 12 37 8 0 8 -5 -1 -15z m546 6 c-3
-4 3 -16 14 -26 11 -10 20 -24 20 -32 0 -8 5 -11 10 -8 6 3 10 2 10 -3 0 -19
-26 -20 -27 -1 -1 10 -11 28 -22 41 -23 24 -27 38 -10 38 5 0 8 -4 5 -9z
m-770 -56 c-15 -19 -31 -35 -37 -35 -5 0 4 14 21 31 16 18 30 37 30 42 0 6 3
7 6 4 4 -4 -5 -22 -20 -42z m79 25 c3 -5 1 -10 -4 -10 -6 0 -11 5 -11 10 0 6
2 10 4 10 3 0 8 -4 11 -10z m612 -27 c-11 -10 -26 8 -20 23 5 15 7 14 15 -1 6
-9 7 -19 5 -22z m89 -20 c-3 -4 -6 -1 -6 5 0 6 -8 9 -17 6 -14 -5 -15 -4 -4 4
9 7 10 12 2 16 -6 4 -11 12 -11 18 0 6 10 -1 21 -16 12 -15 19 -30 15 -33z
m-666 35 c0 -6 3 -9 6 -5 3 3 21 -10 39 -29 21 -22 39 -32 49 -28 9 3 16 2 16
-3 0 -20 -37 -9 -72 23 -20 18 -45 31 -55 30 -10 -2 -12 -1 -5 1 7 3 10 9 7
14 -4 5 -1 9 4 9 6 0 11 -5 11 -12z m424 6 c9 -3 16 -13 16 -22 0 -13 -3 -12
-15 4 -15 19 -15 19 -34 -3 -10 -12 -22 -19 -26 -15 -5 4 -6 0 -3 -9 4 -9 1
-16 -8 -16 -20 0 -18 4 16 37 34 33 32 32 54 24z m296 2 c0 -3 -4 -8 -10 -11
-5 -3 -10 -1 -10 4 0 6 5 11 10 11 6 0 10 -2 10 -4z m19 -22 c-6 -8 -15 -12
-18 -8 -3 4 0 9 7 11 6 3 9 10 6 15 -4 7 -2 8 5 4 9 -6 9 -11 0 -22z m-815 0
c-18 -15 -18 -15 4 -9 12 4 22 2 22 -3 0 -5 -9 -9 -20 -8 -11 0 -20 4 -20 9 0
4 0 12 0 17 0 6 8 10 17 10 15 0 14 -2 -3 -16z m696 6 c0 -5 -7 -7 -15 -4 -8
4 -15 8 -15 10 0 2 7 4 15 4 8 0 15 -4 15 -10z m-305 -10 c3 -5 1 -10 -4 -10
-6 0 -11 5 -11 10 0 6 2 10 4 10 3 0 8 -4 11 -10z m455 -5 c0 -6 -56 -35 -67
-35 -9 0 48 38 60 39 4 1 7 -1 7 -4z m-770 -20 c0 -8 -2 -15 -4 -15 -2 0 -6 7
-10 15 -3 8 -1 15 4 15 6 0 10 -7 10 -15z m340 12 c0 -2 -9 -12 -20 -22 -24
-21 -27 -14 -4 9 15 15 24 20 24 13z m-610 -17 c0 -5 -5 -10 -11 -10 -5 0 -7
5 -4 10 3 6 8 10 11 10 2 0 4 -4 4 -10z m305 -19 c-6 -5 -25 10 -25 20 0 5 6
4 14 -3 8 -7 12 -15 11 -17z m375 19 c0 -5 -2 -10 -4 -10 -3 0 -8 5 -11 10 -3
6 -1 10 4 10 6 0 11 -4 11 -10z m170 4 c0 -8 -19 -13 -24 -6 -3 5 1 9 9 9 8 0
15 -2 15 -3z m215 -44 c-10 -16 -29 -12 -43 10 -7 12 -8 20 -2 20 5 0 10 -5
10 -11 0 -5 4 -8 10 -4 5 3 7 13 3 23 -3 11 1 9 11 -6 10 -12 14 -27 11 -32z
m-1048 14 c-3 -3 -12 -4 -19 -1 -8 3 -5 6 6 6 11 1 17 -2 13 -5z m992 -7 c8
-10 7 -14 -2 -14 -8 0 -14 6 -14 14 0 7 1 13 2 13 2 0 8 -6 14 -13z m-1014
-15 c-3 -3 -11 0 -18 7 -9 10 -8 11 6 5 10 -3 15 -9 12 -12z m605 12 c0 -8
-19 -13 -24 -6 -3 5 1 9 9 9 8 0 15 -2 15 -3z m290 -4 c0 -5 -2 -10 -4 -10 -3
0 -8 5 -11 10 -3 6 -1 10 4 10 6 0 11 -4 11 -10z m80 0 c0 -5 -5 -10 -11 -10
-5 0 -7 5 -4 10 3 6 8 10 11 10 2 0 4 -4 4 -10z m-539 -22 c9 -18 9 -21 -1
-11 -7 6 -19 9 -26 6 -8 -3 -14 0 -14 7 0 6 5 8 10 5 6 -3 10 -1 10 4 0 17 8
13 21 -11z m134 13 c3 -5 2 -12 -3 -15 -5 -3 -9 1 -9 9 0 17 3 19 12 6z m522
-6 c0 -8 -4 -12 -9 -9 -4 3 -8 -4 -8 -15 0 -15 5 -19 21 -16 15 3 19 0 15 -11
-3 -8 1 -28 9 -45 9 -16 13 -29 9 -29 -4 0 -1 -6 5 -14 8 -10 8 -16 -3 -25
-11 -9 -15 -8 -19 3 -4 11 -1 13 11 9 14 -6 15 -4 5 9 -7 8 -10 18 -6 21 3 4
1 7 -6 7 -7 0 -10 4 -6 9 3 5 1 12 -5 16 -5 3 -10 15 -10 26 0 10 -5 18 -12
17 -17 -4 -22 30 -8 47 15 19 17 19 17 0z m-1126 -18 c-10 -9 -11 -8 -5 6 3
10 9 15 12 12 3 -3 0 -11 -7 -18z m749 13 c0 -5 -2 -10 -4 -10 -3 0 -8 5 -11
10 -3 6 -1 10 4 10 6 0 11 -4 11 -10z m40 0 c0 -5 -5 -10 -11 -10 -5 0 -7 5
-4 10 3 6 8 10 11 10 2 0 4 -4 4 -10z m0 -40 c0 -5 -5 -10 -11 -10 -5 0 -7 5
-4 10 3 6 8 10 11 10 2 0 4 -4 4 -10z m155 0 c3 -5 1 -10 -4 -10 -6 0 -11 5
-11 10 0 6 2 10 4 10 3 0 8 -4 11 -10z m145 0 c0 -5 -2 -10 -4 -10 -3 0 -8 5
-11 10 -3 6 -1 10 4 10 6 0 11 -4 11 -10z m-439 -17 c13 -16 12 -17 -3 -4 -10
7 -18 15 -18 17 0 8 8 3 21 -13z m356 2 c0 -8 -4 -12 -9 -9 -5 3 -6 10 -3 15
9 13 12 11 12 -6z m-307 -1 c0 -8 -19 -13 -24 -6 -3 5 1 9 9 9 8 0 15 -2 15
-3z m250 -24 c0 -5 -5 -10 -11 -10 -5 0 -7 5 -4 10 3 6 8 10 11 10 2 0 4 -4 4
-10z m-300 -20 c0 -5 -2 -10 -4 -10 -3 0 -8 5 -11 10 -3 6 -1 10 4 10 6 0 11
-4 11 -10z m300 -14 c0 -3 -4 -8 -10 -11 -5 -3 -10 -1 -10 4 0 6 5 11 10 11 6
0 10 -2 10 -4z m-106 -24 c3 -5 -1 -9 -9 -9 -8 0 -12 4 -9 9 3 4 7 8 9 8 2 0
6 -4 9 -8z m161 -1 c3 -5 2 -12 -3 -15 -5 -3 -9 1 -9 9 0 17 3 19 12 6z m-255
-15 c0 -2 -7 -7 -16 -10 -8 -3 -12 -2 -9 4 6 10 25 14 25 6z m280 -46 c0 -5
-5 -10 -11 -10 -5 0 -7 5 -4 10 3 6 8 10 11 10 2 0 4 -4 4 -10z m40 0 c0 -5
-2 -10 -4 -10 -3 0 -8 5 -11 10 -3 6 -1 10 4 10 6 0 11 -4 11 -10z m35 0 c3
-5 1 -10 -4 -10 -6 0 -11 5 -11 10 0 6 2 10 4 10 3 0 8 -4 11 -10z"/>
<path d="M1150 1110 c0 -5 5 -10 11 -10 5 0 7 5 4 10 -3 6 -8 10 -11 10 -2 0
-4 -4 -4 -10z"/>
<path d="M1245 990 c-3 -5 -1 -10 4 -10 6 0 11 5 11 10 0 6 -2 10 -4 10 -3 0
-8 -4 -11 -10z"/>
</g>
</svg>
